<svg xmlns="http://www.w3.org/2000/svg" viewBox="0 0 176.41 124.53">
  <path d="M145.23,53.07c5.66,8.65-1.58,18.53-8.21,24.16-9.17,7.79-21.77,12.12-33.75,12.65-2.81,4.58-6.63,8.13-10.86,11.37-19.18,14.69-51.8,25.34-75.96,22.94-18.86-1.87-18.81-11-13.13-26.46,11.83-32.16,40.64-52.44,72.45-62.03,28.55-8.61,53.01-10.63,79.05-27.36,4.13-2.65,10.86-8.85,15.8-8.31,7.85.86,5.93,13.32,4.41,18.52-4.24,14.5-16.49,27.77-29.8,34.52ZM104.39,85.86c10.55-.63,22.03-4.79,30.01-11.81,4.84-4.25,12.04-12.57,7.05-19-7.14,2.79-15.01,4.93-22.77,4.42-3.1-.2-9.86-1.45-9.87-5.43-.02-4.48,7.08-5.86,10.53-6.44,7.29-1.23,13.9-.85,20.81,1.8.75.29,1.26,1.07,2.1.85,13.92-6.96,28.85-23.44,29.93-39.56.2-2.99.12-7.58-4.09-6.31-2.76.84-10.08,6.62-13.16,8.51-39.8,24.5-88.63,18.93-123.76,51.28-11.02,10.14-25.5,30.76-26.8,45.99-.42,4.87,1.05,6.78,5.61,8.27,13.77,4.5,37.59-.62,51.13-5.43,11.22-3.98,29.44-12.91,36.75-22.43.21-.28.54-.35.41-.83-5.81.25-18.26-2.72-20.61-8.7-2.15-5.47,2.63-8.12,7.41-8.26,6.95-.2,20.87,3.88,19.32,13.07ZM137.18,52.24c-1.86-.61-3.78-1.1-5.73-1.36-4.99-.65-12.96-.42-17.51,1.86-.37.18-1.23.52-1.22,1.01.18,1.26,3.56,1.89,4.68,2.01,4.81.54,10.5-.35,15.13-1.67.41-.12,4.97-1.47,4.66-1.86ZM84.61,76.49c-3.8.37-4.67,2.31-1.75,4.92,2.51,2.25,6.54,3.5,9.81,4.08,1.12.2,7.21,1.11,7.72.38.2-.57.17-1.23.12-1.82-.46-5.31-11.62-7.97-15.89-7.56Z"/>
</svg>
